<svg id="Layer_1" data-name="Layer 1" xmlns="http://www.w3.org/2000/svg" viewBox="0 0 280 280"><defs><style>.cls-1{font-size:36px;font-family:MSReferenceSansSerif, MS Reference Sans Serif;}.cls-1,.cls-3{fill:#db6f0e;}.cls-2{letter-spacing:-0.02em;}</style></defs><rect width="280" height="280"/><text class="cls-1" transform="translate(53.32 250.59) scale(0.97 1)">COM<tspan class="cls-2" x="83.81" y="0">P</tspan><tspan x="104.64" y="0">ANY</tspan></text><path class="cls-3" d="M30.06,157.1a109.87,109.87,0,0,0,17.68,28.31,101.75,101.75,0,0,1-18.52-27.92,106.63,106.63,0,0,1-8.72-32.76,109.86,109.86,0,0,1,16-69,119.42,119.42,0,0,0-8,16.9A116,116,0,0,0,23.5,90a113.08,113.08,0,0,0-1.84,34.6A110.69,110.69,0,0,0,30.06,157.1Zm1.84-70A116.21,116.21,0,0,1,35.73,74.6,100.86,100.86,0,0,0,31.48,87a102.71,102.71,0,0,0-3,37.67,100.72,100.72,0,0,0,5.48,23.83,96.2,96.2,0,0,0,11,21.48A106.93,106.93,0,0,1,29.31,124.6a109.11,109.11,0,0,1,.26-24.88A111.24,111.24,0,0,1,31.9,87.13Zm8.52,55.33a96.11,96.11,0,0,1-3.64-17.85,97.71,97.71,0,0,1-.2-18.59q.39-4.71,1.24-9.44c.57-3.15,1.3-6.3,2.17-9.44a88.51,88.51,0,0,0-2.49,9.39,91.65,91.65,0,0,0-1.38,28.16,89.77,89.77,0,0,0,3.8,17.93,85.89,85.89,0,0,0,7.32,16.54A98.69,98.69,0,0,1,40.42,142.46Zm217-52.64a110.19,110.19,0,0,0-13.95-34.06,119.42,119.42,0,0,1,8,16.9A116,116,0,0,1,256.5,90a113.08,113.08,0,0,1,1.84,34.6,110,110,0,0,1-26.08,60.83,101.75,101.75,0,0,0,18.52-27.92,106.63,106.63,0,0,0,8.72-32.76A109.43,109.43,0,0,0,257.4,89.82Zm-12,58.49A107.87,107.87,0,0,1,235.06,170a96.2,96.2,0,0,0,11-21.48,100.72,100.72,0,0,0,5.48-23.83,102.71,102.71,0,0,0-3-37.67,100.86,100.86,0,0,0-4.25-12.44,116.21,116.21,0,0,1,3.83,12.53,111.24,111.24,0,0,1,2.33,12.59,109.11,109.11,0,0,1,.26,24.88A106.93,106.93,0,0,1,245.42,148.31ZM242.5,96.53A88.51,88.51,0,0,0,240,87.14c.87,3.14,1.6,6.29,2.17,9.44s1,6.3,1.24,9.44a97.71,97.71,0,0,1-.2,18.59,96.11,96.11,0,0,1-3.64,17.85,98.69,98.69,0,0,1-6.82,16.7,85.89,85.89,0,0,0,7.32-16.54,89.77,89.77,0,0,0,3.8-17.93,91.65,91.65,0,0,0-1.38-28.16ZM53.06,174.83l-2.47-4.07-.39,4.74-4.64,1.1L50,178.44l-.39,4.74,3.11-3.6,4.39,1.84-2.47-4.07,3.11-3.61Zm181.06,1.73-4.65-1.07-.42-4.74-2.44,4.09L222,173.77l3.13,3.59-2.44,4.09,4.38-1.87,3.13,3.59-.42-4.74ZM40.93,69.91l3-3.71,4.46,1.67-2.62-4,3-3.72-4.59,1.26-2.62-4-.22,4.76-4.59,1.26,4.46,1.68Zm191.3-1.15,4.23-2.19,3.39,3.35-.77-4.7L243.31,63l-4.71-.72-.77-4.69-2.14,4.25L231,61.16l3.39,3.34Zm-146,15-5.45-4.6C80.9,81.26,83.51,83.58,86.19,83.78Zm47.86,60.47L122,133.2c6.26,1.3,9,7.26,14.52,10.36,0-2.16.74-4.74-.13-5.54a22.65,22.65,0,0,0-12.93-6.25,4.89,4.89,0,0,0-5.59,3.25c-1.93,4.86,2.45,13.85,8,15.31-3.07-3.8-6.74-7.29-7-12.51l7.42,8.33Zm64.1-23.43c-3.21-5.33-12.34-7.25-16.83-3.59C187.34,116.88,193.1,117.14,198.15,120.82Zm-66.43.06c1.49-.47,2.68-1.88,4.28-3-7,.1-13.39.34-19.8.27a51.82,51.82,0,0,1-19-3.66,13,13,0,0,0-.17,1.58c.28,8.42.22,16.86,1,25.24a68.36,68.36,0,0,0,6.9,25.39c1.41,2.77,3.2,5.34,4.82,8l.52-.28c-.06-.37-.13-.74-.18-1.11-1.25-8.85-2.68-17.69-3.67-26.57a43.17,43.17,0,0,1,1.34-16.25,5.6,5.6,0,0,1,3.81-4.19c2.31-.73,4.7-1.22,7-1.83C123,123.27,127.42,122.26,131.72,120.88Zm20.16,37.17c1.69,2.21,3.61,4.64,2,7.62a7.35,7.35,0,0,1-6.63,3.63c-9,0-17.9-6.48-20.11-14.06a12.13,12.13,0,0,1-.38-4.53c.33-3.33,2.33-5,5.65-4.83a15.24,15.24,0,0,1,4.21.91A33.74,33.74,0,0,1,151.88,158.05Zm-3.29,9.51c-3.73-2.08-7.84-3.86-11.34-6.46s-6.24-5.94-9.1-8.75C129.62,161.73,140.57,169.88,148.59,167.56Zm3.4-3.22c-1-2.88-17.93-16.28-20.44-16.74,3.28,3,6.4,6.17,9.8,9S148.43,161.76,152,164.34ZM70.22,134.08a6,6,0,0,0-.34.87A34.1,34.1,0,0,0,72,157.22a27.2,27.2,0,0,0,3.84,6.07,7.86,7.86,0,0,0,1.14.83c-.27-.86-.4-1.29-.53-1.72-.72-2.38-1.52-4.73-2.12-7.13a53.47,53.47,0,0,1-.92-5.5,5.88,5.88,0,0,1,.25-1.52,4.56,4.56,0,0,1,1.62,2.67c1.17,3,2.3,6.09,3.48,9.13.15.38.13.95.73,1.06C80.8,150.53,76.41,139.18,70.22,134.08Zm86.45-93.34c-1.82-3.07-8.46-2.27-12,.55C149,40.06,152.7,38.61,156.67,40.74Zm25.67,55,5.42,4.93C187.63,98.53,185.06,96.08,182.34,95.7Zm-23.93-9.42-8.6,1.08C153.48,87.91,156,87.62,158.41,86.28Zm21.05,81.57c10.37-.64,22.23-11.46,22.67-20.84C198,158,189,163,179.46,167.85ZM155.7,163A21.74,21.74,0,0,0,146.27,151c-3.31-2.18-4.89-5.13-5.86-8.69-.16-.6-.38-1.19-.59-1.78,0,0-.16,0-.5-.09v6c-.69-.3-1.25-.37-1.43-.66-1.17-1.94-.18-6.75,1.76-8.85s4.15-2.43,6.9-.67a29.93,29.93,0,0,1,13.92,20.42C161.19,160.55,159.83,162.05,155.7,163ZM144,137.58l13.71,22.69C158.19,157.22,146.94,138.84,144,137.58ZM157,181.34c7.27-5.44,13.66-20.06,13.32-29.12A99.76,99.76,0,0,1,157,181.34Zm41.29-46.25c-.58-5.73-4-10.17-8.65-10.59-3.16-.29-6.39.21-9.58.42-1.36.09-1.75.89-1.82,2.25-.28,5.32-.42,10.67-1.18,15.93-1,7.13-2.59,14.17-4,21.39a54.38,54.38,0,0,0,14.07-6C195.73,153,199.25,145.1,198.24,135.09Zm18.5-55.18c-4.43,6.58-5.39,18.6-1.16,28.27.53-.27.36-.8.39-1.22.26-3.21.47-6.43.72-9.64a4.49,4.49,0,0,1,.79-3,6.06,6.06,0,0,1,.66,1.37,50.75,50.75,0,0,1,.68,5.47c.11,2.45,0,4.91,0,7.37,0,.45,0,.89,0,1.78a7.33,7.33,0,0,0,.84-1.1,26.67,26.67,0,0,0,1.93-6.85,33.76,33.76,0,0,0-4.27-21.74A5.29,5.29,0,0,0,216.74,79.91Zm20.94,33A97.68,97.68,0,1,1,140,15.21,97.68,97.68,0,0,1,237.68,112.89ZM159.26,63.76c.16-1.22.3-2.17.42-3.13a3.42,3.42,0,0,0-.43-2.07,1.71,1.71,0,0,0-1.59-.94,3.66,3.66,0,0,0-3.3,1.7,6.62,6.62,0,0,0-1,2.92,42.48,42.48,0,0,0-.37,7.39,16.2,16.2,0,0,0,.52,3.51,5,5,0,0,0,3.16-1c1.31-.85,2.64-1.65,4-2.49,1.09-.7,2.21-1.37,3.26-2.13,2.11-1.49,2-2.32.77-4.4l-.11-.16a1.8,1.8,0,0,0-2.68-.72C161,62.65,160.28,63.16,159.26,63.76ZM116.9,41.55c1,.75,2.17,1.43,3.26,2.13,1.32.83,2.65,1.64,4,2.48a5,5,0,0,0,3.16,1,16.2,16.2,0,0,0,.52-3.51,42.36,42.36,0,0,0-.37-7.38,6.57,6.57,0,0,0-1-2.92,3.65,3.65,0,0,0-3.3-1.71,1.7,1.7,0,0,0-1.59.95,3.44,3.44,0,0,0-.43,2.06c.12,1,.26,1.91.42,3.13-1-.6-1.77-1.11-2.58-1.5a1.8,1.8,0,0,0-2.68.71l-.11.16C114.88,39.23,114.79,40.05,116.9,41.55Zm-51.38,71.5a5.1,5.1,0,0,0,3.07-1.5c1.2-1.07,2.44-2.1,3.65-3.16,1-.88,2-1.75,3-2.68,1.91-1.85,1.69-2.68.09-4.61a1,1,0,0,0-.14-.15,1.86,1.86,0,0,0-2.84-.31c-.76.53-1.45,1.17-2.4,1.94,0-1.27,0-2.26-.06-3.26a3.55,3.55,0,0,0-.76-2,1.77,1.77,0,0,0-1.77-.72,3.79,3.79,0,0,0-3.1,2.26,7,7,0,0,0-.6,3.14,44.12,44.12,0,0,0,.78,7.6A17.49,17.49,0,0,0,65.52,113.05Zm21.33,63.74c-.65-1.28-1-2-1.41-2.78-1-1.79-1.86-3.58-2.86-5.33a5.88,5.88,0,0,1-.73-3.56A66.26,66.26,0,0,0,81.32,150a31.73,31.73,0,0,0-9.09-17.95,1.91,1.91,0,0,0-2.69-.5,2.61,2.61,0,0,0-1.66,2.07c-.4,2.53-.88,5-1.24,7.57a30.28,30.28,0,0,0,3.87,19.06,16.57,16.57,0,0,0,7.26,7.32,6.36,6.36,0,0,1,2.63,2.45c1.07,1.62,2.2,3.19,3.37,4.73A5.32,5.32,0,0,0,86.85,176.79Zm.3-90.15c3.92,2.16,8,4,12,6A6.86,6.86,0,0,1,103,99.11c0,1.58-.52,2.26-2.19,2.55-2.5.43-4.92,1.28-7.38,2l.08.76a29.32,29.32,0,0,0,3.63,1.42c2.74.67,5.51,1.32,8.3,1.72a235.9,235.9,0,0,0,48.32,1.54c6-.37,12-1.51,18-2.42a19.68,19.68,0,0,0,3.85-1.42l-.08-.5-3.74-1.66,0-.66a12,12,0,0,1,2.9-.24c1.82.28,3.58.93,5.4,1.19a35,35,0,0,0,6.05.35,3.58,3.58,0,0,0,3.36-2.65c.51-1.6-.31-2.82-1.51-3.77a20.46,20.46,0,0,0-3.39-2.37c-5-2.51-4.57-7.56-.86-10.39a51.14,51.14,0,0,1,8.1-5.24c3.35-1.67,7-2.69,10.41-4.24a10.07,10.07,0,0,0,3.94-3c1.41-2,.44-3.75-2-3.68a12.27,12.27,0,0,0-5.66,1.26c-3.68,2.14-7.14,4.68-10.61,7.18s-6.79,5.46-10.44,7.78c-3.87,2.46-7,1-8.25-3.46a13.58,13.58,0,0,1,6.19-15.15,28.28,28.28,0,0,1,7-2.58c4-1,8-1.46,12-2.36,2.22-.5,4.24-1.79,4.24-4.32a20.32,20.32,0,0,0-1.11-7.11c-1.55-4.1-4.86-5.55-9.1-4.47a22.7,22.7,0,0,0-10,5.29,39.11,39.11,0,0,0-11,16.85,83.39,83.39,0,0,1-3.85,10.35C160,85,154,87.27,146.31,84.39c-4.71-1.76-7.34-5.91-6.19-10.77,2.12-8.88,5.68-17,13.61-22.42a22.79,22.79,0,0,0,4.62-4.26,5.29,5.29,0,0,0-1.94-8.43,10.89,10.89,0,0,0-4.94-1,19.13,19.13,0,0,0-17.83,15.07,26.92,26.92,0,0,0-.72,8.41c.55,5.15,1.77,10.22,2.53,15.34a31.24,31.24,0,0,1,.4,7.59c-.23,2.21-2,3-4.15,2.18-3.38-1.35-5.83-3.67-6.4-7.41-.51-3.38-.69-6.81-1.15-10.2a25.12,25.12,0,0,0-1.24-5.15c-.23-.65-1.21-1-1.85-1.53-.32.71-.94,1.44-.91,2.13.11,2.17.52,4.31.71,6.48a39.32,39.32,0,0,1,.31,6.67c-.09,1-1,2.61-1.89,2.81s-2.2-.79-3.11-1.52a4.38,4.38,0,0,1-1.2-2.22c-.45-1.71-.79-3.46-1.07-5.21C112,59,110,47.07,101.6,37.48c-1-1.16-2-1.75-3.33-1.36A2.48,2.48,0,0,0,96.6,39.3a29.87,29.87,0,0,0,2,5.09c3.54,7.64,7.24,15.2,10.64,22.9a20.5,20.5,0,0,1,1.4,6.71c.18,2.37-1.19,3.56-3.55,3.4a15.16,15.16,0,0,1-4.23-.86C91.31,72.16,81.75,65.31,75.42,54.43A5.9,5.9,0,0,0,73.2,52.3a2,2,0,0,0-3,2.14,10.15,10.15,0,0,0,1.38,3.44A33,33,0,0,0,85.31,70.53,95.71,95.71,0,0,1,97.83,78,21.27,21.27,0,0,1,103,84.08c.6.93.08,2.57.06,3.9-1.22-.17-2.68,0-3.63-.57-2.88-1.83-5.56-4-8.31-6C89,79.83,87,78.11,84.79,76.66c-2-1.33-3.7-.87-4.94,1a3,3,0,0,0,.56,4.28A44.1,44.1,0,0,0,87.15,86.64Zm122.56,47.71c-.78-9.6-7.28-20.76-20.79-21.54-3.51-.2-7.06.16-10.7.27-.16-2-.35-4.13-.52-6.18a35.82,35.82,0,0,1-4.62,1.74A94.09,94.09,0,0,1,163,110.53a244,244,0,0,1-54.43,0c-4.94-.55-9.95-1.09-14.79-3.92-.17,5.1-.45,9.9-.46,14.7,0,15.09,1.28,30,6.26,44.39a54.21,54.21,0,0,0,13.6,21.93A23.53,23.53,0,0,0,130,194.41c3.88,0,7.76,0,11.64,0,6.39,0,12-1.94,16.44-6.67a107.87,107.87,0,0,0,7.11-8.16,6.08,6.08,0,0,1,3.44-2.23c6-1.77,12.26-3.23,18-5.7C203.2,164.57,211.1,151.43,209.71,134.35Zm14.16-29.5a29.91,29.91,0,0,0-1.72-19.18c-1.05-2.3-2.22-4.55-3.31-6.84a2.64,2.64,0,0,0-2.16-1.5,1.9,1.9,0,0,0-2.41,1.24,31.35,31.35,0,0,0-3.55,19.61,65.16,65.16,0,0,0,3.76,14.47,5.86,5.86,0,0,1,.32,3.58c-.46,2-.82,3.91-1.21,5.87-.17.82-.3,1.64-.56,3a5.31,5.31,0,0,0,2.36-2.77c.67-1.8,1.31-3.61,1.86-5.45a6.19,6.19,0,0,1,1.81-3.07A16.37,16.37,0,0,0,223.87,104.85Z"/></svg>